<svg xmlns="http://www.w3.org/2000/svg" version="1.1" width="148.97995" height="238.09034" viewBox="0 0 148.97995 238.09034">
  <g transform="translate(-164.79449,-55.9727)">
    <path d="M292.25,122.22849l-23,15.5l-29.5,-24l-31.5,24.5l-21.5,-16l-15,7c0,0 24.71178,-69.7937 67.00268,-69.25266c47.53607,0.60815 68.49732,69.75266 68.49732,69.75266z" fill="var(--primary)" stroke="var(--primary)" stroke-width="8" stroke-linecap="round"/>
    <path d="M213.78358,206.92893c-1.24956,-7.89765 2.46642,-25.70044 2.46642,-25.70044c0,0 -13.45418,-26.54893 13.23533,-36.45446c25.48686,-9.45918 35.26467,13.45446 35.26467,13.45446l12.5,9l-10,6.5c0,0 -1.24782,4.41304 -2.19118,5.98529c-1.04602,1.74337 -5.30882,6.51471 -5.30882,6.51471c0,0 1.35842,7.16845 1.52975,10.59494c0.16142,3.22836 -0.52975,9.40506 -0.52975,9.40506" fill="none" stroke="var(--primary)" stroke-width="8" stroke-linecap="round"/>
    <path d="M254.46429,164.29992c0,4.14213 -3.05261,7.5 -6.81818,7.5c-3.76557,0 -6.81818,-3.35787 -6.81818,-7.5c0,-4.14213 3.05261,-7.5 6.81818,-7.5c3.76557,0 6.81818,3.35787 6.81818,7.5z" fill="var(--primary)" stroke-linecap="butt"/>
    <path d="M239.24401,290.06304c-72.99584,0.00132 -68.99401,-89.83455 -68.99401,-89.83455l6,-8l35.5,22.5l28,-17l25.5,15.5l36.5,-20l7.5,6.5c0,0 5.12329,90.3332 -70.00599,90.33455z" fill="var(--primary)" stroke="var(--primary)" stroke-width="8" stroke-linecap="round"/>
  </g>
</svg>
